<svg id="レイヤー_1" data-name="レイヤー 1" xmlns="http://www.w3.org/2000/svg" viewBox="0 0 220.56 118.75">
    <path class="cls-1" d="M15.22.58H22L37.78,21.27V.58h7.3v33.6H38.79L22.51,12.82V34.18h-7.3Z" />
    <path class="cls-1" d="M67.06.34h6.82l14.4,33.84H80.55l-3.07-7.54H63.26l-3.07,7.54H52.66Zm7.78,19.78L70.37,9.22l-4.46,10.9Z" />
    <path class="cls-1" d="M94.37,17.47v-.1C94.37,7.82,101.9,0,112.27,0s17.81,7.73,17.81,17.28v.1c0,9.55-7.54,17.38-17.91,17.38S94.37,27,94.37,17.47Zm28,0v-.1c0-5.76-4.22-10.56-10.18-10.56s-10.08,4.7-10.08,10.46v.1c0,5.76,4.22,10.56,10.18,10.56S122.35,23.23,122.35,17.47Z" />
    <path class="cls-1" d="M148.51,20.93,135.6.58h8.64l8,13.49L160.42.58h8.4L155.91,20.79V34.18h-7.39Z" />
    <path class="cls-1" d="M187.34.34h6.82l14.4,33.84h-7.73l-3.07-7.54H183.55l-3.07,7.54h-7.54Zm7.78,19.78-4.46-10.9-4.46,10.9Z" />
    <path class="cls-1" d="M0,84.58H7.39v13.3H21V84.58h7.39v33.6H21V104.69H7.39v13.49H0Z" />
    <path class="cls-1" d="M39.22,84.58h7.39v33.6H39.22Z" />
    <path class="cls-1" d="M55.92,101.47v-.1A17.25,17.25,0,0,1,73.54,84c6,0,9.7,1.63,13.2,4.61l-4.66,5.62a12.37,12.37,0,0,0-8.78-3.41c-5.38,0-9.65,4.75-9.65,10.46v.1c0,6.14,4.22,10.66,10.18,10.66a11.8,11.8,0,0,0,7-2v-4.8H73.34V98.83H87.94v14.59a21.81,21.81,0,0,1-14.35,5.33C63.12,118.75,55.92,111.41,55.92,101.47Z" />
    <path class="cls-1" d="M96.91,103.78V84.58h7.39v19c0,5.47,2.74,8.3,7.25,8.3s7.25-2.74,7.25-8.06V84.58h7.39v19c0,10.18-5.71,15.17-14.74,15.17S96.91,113.67,96.91,103.78Z" />
    <path class="cls-1" d="M134.64,101.47v-.1A17.08,17.08,0,0,1,152.16,84c6.34,0,10.13,2.11,13.25,5.18l-4.7,5.42c-2.59-2.35-5.23-3.79-8.59-3.79-5.66,0-9.75,4.7-9.75,10.46v.1c0,5.76,4,10.56,9.75,10.56,3.84,0,6.19-1.54,8.83-3.94l4.7,4.75a17.18,17.18,0,0,1-13.78,6A17,17,0,0,1,134.64,101.47Z" />
    <path class="cls-1" d="M174,84.58h7.39v13.3H195V84.58h7.39v33.6H195V104.69H181.34v13.49H174Z" />
    <path class="cls-1" d="M213.17,84.58h7.39v33.6h-7.39Z" />
</svg>